<svg width="100" height="100" viewBox="0 0 100 100" fill="none" xmlns="http://www.w3.org/2000/svg">
<path fill-rule="evenodd" clip-rule="evenodd" d="M49.9707 72.0562C37.8441 72.0562 27.9437 62.1558 27.9437 49.9707C27.9437 37.8441 37.8441 27.9437 49.9707 27.9437C62.1558 27.9437 72.0562 37.8441 72.0562 49.9707C72.0562 62.1558 62.1558 72.0562 49.9707 72.0562ZM49.9707 30.287C39.1329 30.287 30.287 39.1329 30.287 49.9707C30.287 60.867 39.1329 69.7129 49.9707 69.7129C60.867 69.7129 69.7129 60.867 69.7129 49.9707C69.7129 39.1329 60.867 30.287 49.9707 30.287Z" fill="#ACADA8"/>
<path fill-rule="evenodd" clip-rule="evenodd" d="M49.9707 23.1888C49.3263 23.1888 48.7991 23.1888 48.7991 23.1888V1.17163H51.1424V23.1888C51.1424 23.1888 50.6151 23.1888 49.9707 23.1888Z" fill="#ACADA8"/>
<path fill-rule="evenodd" clip-rule="evenodd" d="M49.9707 98.9064C49.3263 98.9064 48.7991 98.9064 48.7991 98.9064V76.8892H51.1424V98.9064C51.1424 98.9064 50.6151 98.9064 49.9707 98.9064Z" fill="#ACADA8"/>
<path fill-rule="evenodd" clip-rule="evenodd" d="M76.8209 50.039C76.8209 49.3946 76.8209 48.8674 76.8209 48.8674L98.838 48.8674L98.838 51.2107L76.8209 51.2107C76.8209 51.2107 76.8209 50.6834 76.8209 50.039Z" fill="#ACADA8"/>
<path fill-rule="evenodd" clip-rule="evenodd" d="M1.10332 50.039C1.10332 49.3946 1.10332 48.8674 1.10332 48.8674L23.1205 48.8674L23.1205 51.2107L1.10332 51.2107C1.10332 51.2107 1.10332 50.6834 1.10332 50.039Z" fill="#ACADA8"/>
<path fill-rule="evenodd" clip-rule="evenodd" d="M68.8878 31.1218C68.4321 30.6662 68.0593 30.2933 68.0593 30.2933L79.567 18.7858L81.2239 20.4428L69.7163 31.9503C69.7163 31.9503 69.3435 31.5775 68.8878 31.1218Z" fill="#ACADA8"/>
<path fill-rule="evenodd" clip-rule="evenodd" d="M19.7641 80.2455C19.3085 79.7898 18.9356 79.417 18.9356 79.417L30.5116 67.8411L32.1686 69.498L20.5926 81.074C20.5926 81.074 20.2198 80.7012 19.7641 80.2455Z" fill="#ACADA8"/>
<path fill-rule="evenodd" clip-rule="evenodd" d="M68.7381 68.8064C69.1938 68.3507 69.5666 67.9779 69.5666 67.9779L81.161 79.5724L79.5041 81.2293L67.9096 69.6349C67.9096 69.6349 68.2824 69.262 68.7381 68.8064Z" fill="#ACADA8"/>
<path fill-rule="evenodd" clip-rule="evenodd" d="M19.5275 19.5959C19.9832 19.1403 20.356 18.7674 20.356 18.7674L32.0372 30.4485L30.3803 32.1054L18.699 20.4244C18.699 20.4244 19.0719 20.0516 19.5275 19.5959Z" fill="#ACADA8"/>
<path fill-rule="evenodd" clip-rule="evenodd" d="M56.9139 24.1876C56.2915 24.0208 55.7822 23.8844 55.7822 23.8844L57.8445 16.1748L60.108 16.7813L58.0456 24.4909C58.0456 24.4909 57.5364 24.3544 56.9139 24.1876Z" fill="#ACADA8"/>
<path fill-rule="evenodd" clip-rule="evenodd" d="M41.1019 83.2949C40.4795 83.1281 39.9702 82.9916 39.9702 82.9916L42.0388 75.1755L44.3023 75.782L42.2337 83.5981C42.2337 83.5981 41.7244 83.4617 41.1019 83.2949Z" fill="#ACADA8"/>
<path fill-rule="evenodd" clip-rule="evenodd" d="M75.6265 56.8983C75.7933 56.2759 75.9298 55.7666 75.9298 55.7666L83.9033 57.8444L83.2968 60.1078L75.3233 58.03C75.3233 58.03 75.4597 57.5208 75.6265 56.8983Z" fill="#ACADA8"/>
<path fill-rule="evenodd" clip-rule="evenodd" d="M16.4744 40.8981C16.6412 40.2756 16.7776 39.7663 16.7776 39.7663L24.6637 42.0298L24.0572 44.2932L16.1712 42.0298C16.1712 42.0298 16.3076 41.5205 16.4744 40.8981Z" fill="#ACADA8"/>
<path fill-rule="evenodd" clip-rule="evenodd" d="M63.3302 26.848C62.7722 26.5258 62.3156 26.2622 62.3156 26.2622L66.303 19.3491L68.3324 20.5207L64.3449 27.4338C64.3449 27.4338 63.8883 27.1702 63.3302 26.848Z" fill="#ACADA8"/>
<path fill-rule="evenodd" clip-rule="evenodd" d="M32.7591 79.8487C32.201 79.5265 31.7444 79.2629 31.7444 79.2629L35.7655 72.2485L37.7949 73.4202L33.7738 80.4345C33.7738 80.4345 33.3172 80.1709 32.7591 79.8487Z" fill="#ACADA8"/>
<path fill-rule="evenodd" clip-rule="evenodd" d="M72.9391 63.2873C73.2613 62.7292 73.5249 62.2726 73.5249 62.2726L80.689 66.3433L79.5173 68.3726L72.3532 64.3019C72.3532 64.3019 72.6169 63.8453 72.9391 63.2873Z" fill="#ACADA8"/>
<path fill-rule="evenodd" clip-rule="evenodd" d="M19.9438 32.5225C20.266 31.9644 20.5296 31.5078 20.5296 31.5078L27.5612 35.7352L26.3895 37.7646L19.358 33.5372C19.358 33.5372 19.6216 33.0806 19.9438 32.5225Z" fill="#ACADA8"/>
<path fill-rule="evenodd" clip-rule="evenodd" d="M73.0645 36.6068C72.7423 36.0487 72.4787 35.5921 72.4787 35.5921L79.3884 31.5989L80.5601 33.6283L73.6503 37.6215C73.6503 37.6215 73.3867 37.1648 73.0645 36.6068Z" fill="#ACADA8"/>
<path fill-rule="evenodd" clip-rule="evenodd" d="M20.0888 67.2212C19.7666 66.6631 19.503 66.2065 19.503 66.2065L26.4926 62.1425L27.6642 64.1718L20.6747 68.2359C20.6747 68.2359 20.411 67.7793 20.0888 67.2212Z" fill="#ACADA8"/>
<path fill-rule="evenodd" clip-rule="evenodd" d="M63.1664 72.9685C63.7245 72.6463 64.1811 72.3827 64.1811 72.3827L68.35 79.4901L66.3206 80.6617L62.1517 73.5544C62.1517 73.5544 62.6083 73.2907 63.1664 72.9685Z" fill="#ACADA8"/>
<path fill-rule="evenodd" clip-rule="evenodd" d="M32.6535 19.8279C33.2116 19.5057 33.6682 19.2421 33.6682 19.2421L37.644 26.4189L35.6147 27.5905L31.6389 20.4137C31.6389 20.4137 32.0955 20.1501 32.6535 19.8279Z" fill="#ACADA8"/>
<path fill-rule="evenodd" clip-rule="evenodd" d="M75.7371 43.0247C75.5704 42.4023 75.4339 41.893 75.4339 41.893L83.1417 39.8243L83.7482 42.0877L76.0404 44.1564C76.0404 44.1564 75.9039 43.6472 75.7371 43.0247Z" fill="#ACADA8"/>
<path fill-rule="evenodd" clip-rule="evenodd" d="M16.643 58.8849C16.4762 58.2625 16.3397 57.7532 16.3397 57.7532L24.1429 55.6366L24.7494 57.9L16.9462 60.0166C16.9462 60.0166 16.8097 59.5073 16.643 58.8849Z" fill="#ACADA8"/>
<path fill-rule="evenodd" clip-rule="evenodd" d="M56.7652 75.5857C57.3876 75.4189 57.8969 75.2824 57.8969 75.2824L60.0842 83.2266L57.8208 83.8331L55.6334 75.8889C55.6334 75.8889 56.1427 75.7524 56.7652 75.5857Z" fill="#ACADA8"/>
<path fill-rule="evenodd" clip-rule="evenodd" d="M41.0458 16.3584C41.6683 16.1917 42.1776 16.0552 42.1776 16.0552L44.1604 24.0165L41.8969 24.623L39.9141 16.6617C39.9141 16.6617 40.4234 16.5252 41.0458 16.3584Z" fill="#ACADA8"/>
<path d="M35.0549 54.2332L36.1716 53.5632C36.9533 55.0149 37.869 55.7519 38.9187 55.7519C39.3653 55.7519 39.7897 55.6402 40.1694 55.4392C40.549 55.2382 40.8617 54.9479 41.0627 54.6129C41.2637 54.2556 41.3754 53.8982 41.3754 53.4962C41.3754 53.0495 41.219 52.6252 40.9287 52.2008C40.5044 51.6202 39.7673 50.9055 38.6507 50.0791C37.5563 49.2528 36.864 48.6498 36.596 48.2701C36.127 47.6448 35.9036 46.9748 35.9036 46.2377C35.9036 45.6571 36.0376 45.1434 36.328 44.6521C36.596 44.183 36.998 43.8034 37.4893 43.5354C37.9806 43.2674 38.539 43.1334 39.1197 43.1334C39.745 43.1334 40.3257 43.2897 40.8617 43.6024C41.3977 43.915 41.9784 44.4734 42.5814 45.2997L41.5094 46.1261C41.018 45.4561 40.5937 45.0317 40.2364 44.8307C39.879 44.6297 39.4993 44.5181 39.0973 44.5181C38.5613 44.5181 38.137 44.6744 37.7796 45.0094C37.4446 45.3444 37.266 45.7241 37.266 46.2154C37.266 46.5058 37.333 46.7738 37.4446 47.0418C37.5563 47.3098 37.7796 47.6001 38.0923 47.9128C38.271 48.0914 38.8293 48.5158 39.812 49.2305C40.951 50.0791 41.755 50.8385 42.1794 51.4862C42.6037 52.1562 42.8271 52.8039 42.8271 53.4739C42.8271 54.4342 42.4697 55.2606 41.7327 55.9752C40.9957 56.6899 40.1247 57.0473 39.075 57.0473C38.271 57.0473 37.534 56.8239 36.8863 56.3996C36.194 55.9529 35.5909 55.2382 35.0549 54.2332Z" fill="#ACADA8"/>
<path d="M55.0882 45.1434C53.7482 43.8034 52.0508 43.1334 50.0631 43.1334C48.8348 43.1334 47.6734 43.446 46.6237 44.049C45.5517 44.6744 44.7254 45.5231 44.1 46.5951C43.4747 47.6671 43.1843 48.8508 43.1843 50.1238C43.1843 52.0222 43.8543 53.6525 45.2167 54.9926C46.5567 56.3326 48.2317 57.0026 50.1971 57.0026C52.1401 57.0026 53.7705 56.3326 55.1329 54.9702C56.4729 53.6302 57.1652 51.9775 57.1652 50.0345C57.1206 48.1138 56.4505 46.4834 55.0882 45.1434ZM55.0212 52.9602C54.5299 53.8312 53.8598 54.5012 52.9665 55.0149C52.0955 55.5062 51.1351 55.7519 50.1078 55.7519C48.5668 55.7519 47.2491 55.2159 46.1547 54.1215C45.0604 53.0272 44.5243 51.7095 44.5243 50.1461C44.5243 49.0741 44.77 48.1138 45.2614 47.2651C45.7527 46.3941 46.445 45.7017 47.3161 45.2104C48.1871 44.6967 49.1251 44.4511 50.1078 44.4511C51.1128 44.4511 52.0508 44.6967 52.9442 45.2104C53.8375 45.7241 54.5299 46.3941 55.0212 47.2428C55.5125 48.0914 55.7582 49.0518 55.7582 50.1015C55.7582 51.1288 55.5125 52.0892 55.0212 52.9602Z" fill="#ACADA8"/>
<path d="M55.5126 43.4684H57.0313L60.426 48.9178L63.7537 43.4684H65.2947L61.096 50.3695V56.7123H59.8006V50.3918L55.5126 43.4684Z" fill="#ACADA8"/>
</svg>
