<svg width="194" height="48" viewBox="0 0 194 48" fill="none" xmlns="http://www.w3.org/2000/svg">
    <path d="M0 38.2921L3.85233 35.9807C6.54896 40.9888 9.70786 43.5313 13.3291 43.5313C14.87 43.5313 16.3339 43.1461 17.6437 42.4526C18.9535 41.7592 20.0321 40.7576 20.7255 39.6019C21.4189 38.3692 21.8042 37.1364 21.8042 35.7496C21.8042 34.2087 21.2648 32.7448 20.2632 31.2809C18.7994 29.2777 16.2568 26.8122 12.4045 23.9615C8.62921 21.1108 6.24077 19.0305 5.31621 17.7207C3.69823 15.5634 2.92777 13.252 2.92777 10.7095C2.92777 8.70626 3.39005 6.93419 4.39165 5.23917C5.31621 3.62119 6.70305 2.3114 8.39807 1.38684C10.0931 0.462279 11.9422 0 13.9454 0C16.1027 0 18.1059 0.539326 19.9551 1.61798C21.8042 2.69663 23.8074 4.62279 25.8876 7.47352L22.1894 10.3242C20.4944 8.01284 19.0305 6.54896 17.7978 5.85554C16.565 5.16212 15.2552 4.77689 13.8684 4.77689C12.0193 4.77689 10.5554 5.31621 9.32263 6.47191C8.16693 7.62761 7.55056 8.9374 7.55056 10.6324C7.55056 11.634 7.7817 12.5586 8.16693 13.4831C8.55217 14.4077 9.32263 15.4093 10.4013 16.488C11.0177 17.1043 12.9438 18.5682 16.3339 21.0337C20.2632 23.9615 23.0369 26.5811 24.5008 28.8154C25.9647 31.1268 26.7352 33.3612 26.7352 35.6726C26.7352 38.9856 25.5024 41.8363 22.9599 44.3018C20.4173 46.7673 17.4125 48 13.7913 48C11.0177 48 8.47512 47.2295 6.24077 45.7657C4.00642 44.3018 1.92616 41.7592 0 38.2921Z" fill="#3E3E3C"/>
    <path d="M69.1102 6.93419C64.4874 2.3114 58.6319 0 51.7748 0C47.5372 0 43.5308 1.07865 39.9096 3.15891C36.2114 5.31621 33.3606 8.24398 31.2033 11.9422C29.046 15.7175 28.0444 19.7239 28.0444 24.1156C28.0444 30.6645 30.3558 36.2889 35.0557 40.9117C39.6785 45.5345 45.457 47.8459 52.237 47.8459C58.9401 47.8459 64.5645 45.5345 69.2643 40.8347C73.8871 36.2119 76.2756 30.5104 76.2756 23.8074C76.1215 17.2584 73.8101 11.557 69.1102 6.93419ZM68.8791 33.9005C67.1841 36.9053 64.8727 39.2167 61.7908 40.9888C58.786 42.6838 55.473 43.5313 51.9289 43.5313C46.6126 43.5313 42.0669 41.6822 38.2916 37.9069C34.5163 34.1316 32.6672 29.5859 32.6672 24.1926C32.6672 20.4944 33.5147 17.1814 35.2098 14.2536C36.9048 11.2488 39.2932 8.86035 42.298 7.16533C45.3029 5.39326 48.5388 4.54575 51.9289 4.54575C55.396 4.54575 58.6319 5.39326 61.7138 7.16533C64.7956 8.9374 67.1841 11.2488 68.8791 14.1766C70.5741 17.1043 71.4216 20.4173 71.4216 24.0385C71.4216 27.5827 70.5741 30.8957 68.8791 33.9005Z" fill="#3E3E3C"/>
    <path d="M70.6512 1.15576H75.8904L87.6015 19.9551L99.0814 1.15576H104.398L89.9129 24.9631V46.7673H85.4442V24.9631L70.6512 1.15576Z" fill="#3E3E3C"/>
    <path d="M99.4676 36.3691V32.1223H99.8591V33.8317C100.024 33.629 100.209 33.4778 100.414 33.3783C100.619 33.2769 100.843 33.2262 101.087 33.2262C101.521 33.2262 101.89 33.3839 102.197 33.6994C102.504 34.0129 102.658 34.394 102.658 34.8427C102.658 35.2858 102.503 35.6641 102.194 35.9777C101.884 36.2912 101.511 36.448 101.076 36.448C100.826 36.448 100.6 36.3945 100.397 36.2875C100.194 36.1805 100.015 36.0199 99.8591 35.8059V36.3691H99.4676ZM101.045 36.0678C101.264 36.0678 101.467 36.0143 101.653 35.9073C101.839 35.7984 101.986 35.6463 102.095 35.4511C102.206 35.2558 102.261 35.0493 102.261 34.8315C102.261 34.6137 102.206 34.4062 102.095 34.2091C101.984 34.012 101.835 33.8589 101.647 33.7501C101.461 33.6393 101.262 33.5839 101.05 33.5839C100.834 33.5839 100.629 33.6393 100.434 33.7501C100.24 33.8589 100.091 34.0063 99.9858 34.1922C99.8825 34.3781 99.8309 34.5874 99.8309 34.8202C99.8309 35.1751 99.9473 35.4717 100.18 35.7101C100.415 35.9486 100.703 36.0678 101.045 36.0678ZM103.05 33.3051H103.467L104.52 35.6651L105.542 33.3051H105.962L104.134 37.49H103.717L104.309 36.1382L103.05 33.3051Z" fill="#3E3E3C"/>
    <path d="M102.01 40.2179H102.703V40.6031V44.6866C102.703 45.0718 102.549 45.4571 102.241 45.7652C101.855 46.2275 101.393 46.3816 100.854 46.3816C100.392 46.3816 100.006 46.2275 99.6982 45.9964C99.3129 45.6882 99.0818 45.2259 99.0818 44.6866V44.3014H99.7752V44.6866C99.7752 44.9177 99.8522 45.0718 99.9293 45.2259C100.16 45.5341 100.469 45.6882 100.854 45.6882C101.085 45.6882 101.316 45.6112 101.47 45.5341C101.778 45.303 101.933 45.0718 101.933 44.7636V40.6802V40.2179H102.01Z" fill="#3E3E3C"/>
    <path d="M108.173 46.4587H107.403L107.634 45.9193L110.022 40.449L110.099 40.2179H110.562L110.639 40.449L113.027 45.9193L113.258 46.4587H112.488L112.411 46.2275L110.408 41.5277L108.404 46.2275L108.173 46.4587Z" fill="#3E3E3C"/>
    <path d="M122.427 40.2178V40.9112H122.042H118.729V42.9144H121.04H121.425V43.6079H121.04H118.729V45.6111H122.042H122.427V46.3045H122.042H118.421H118.035V45.9193V43.5308V42.8374V40.449V40.0637H118.421H122.042H122.427V40.2178Z" fill="#3E3E3C"/>
    <path d="M127.821 40.2179H128.514V40.6031V45.6882H131.057H131.442V46.3816H131.057H128.129H127.744V45.9964V40.5261V40.2179H127.821Z" fill="#3E3E3C"/>
    <path d="M144.077 40.2178H144.462V40.9112H144.077H142.459V45.9963V46.3815H141.766V45.9963V40.9112H140.148H139.762V40.2178H140.148H141.766H142.459H144.077Z" fill="#3E3E3C"/>
    <path d="M149.932 41.0653C150.471 40.526 151.088 40.2178 151.858 40.2178C152.552 40.2178 153.245 40.526 153.784 41.0653C154.324 41.6817 154.632 42.4521 154.632 43.2996C154.632 44.1471 154.324 44.9176 153.784 45.534C153.245 46.0733 152.629 46.3815 151.858 46.3815C151.165 46.3815 150.471 46.0733 149.932 45.534C149.393 44.9176 149.085 44.1471 149.085 43.2996C149.085 42.4521 149.393 41.6817 149.932 41.0653ZM150.317 44.9176C150.703 45.4569 151.242 45.6881 151.781 45.6881C152.321 45.6881 152.706 45.4569 153.091 45.0717C153.553 44.6094 153.784 43.9931 153.784 43.2996C153.784 42.6833 153.63 42.1439 153.245 41.6817C152.86 41.1423 152.321 40.9112 151.781 40.9112C151.242 40.9112 150.857 41.1423 150.471 41.5276C150.009 41.9898 149.778 42.6062 149.778 43.2996C149.778 43.916 150.009 44.4553 150.317 44.9176Z" fill="#3E3E3C"/>
    <path d="M159.948 40.2179H160.642V40.6031V45.6882H163.184H163.57V46.3816H163.184H160.257H159.871V45.9964V40.5261V40.2179H159.948Z" fill="#3E3E3C"/>
    <path d="M172.97 40.2178V40.9112H172.585H169.272V42.9144H171.583H171.968V43.6079H171.583H169.272V45.6111H172.585H172.97V46.3045H172.585H168.964H168.578V45.9193V43.5308V42.8374V40.449V40.0637H168.964H172.585H172.97V40.2178Z" fill="#3E3E3C"/>
    <path d="M178.363 46.4587V46.0734V40.6031V40.2179H178.748H180.751C181.445 40.2949 181.984 40.6031 182.446 41.1425C182.909 41.7588 183.14 42.4522 183.063 43.2998C183.14 44.0702 182.909 44.8407 182.446 45.4571C181.984 46.0734 181.445 46.3816 180.751 46.4587H178.748H178.363ZM180.751 45.6882C181.214 45.6112 181.599 45.4571 181.907 45.0718C182.292 44.6095 182.446 43.9932 182.446 43.3768C182.523 42.8375 182.369 42.2982 182.061 41.8359C181.753 41.2965 181.291 41.0654 180.751 40.9884H179.133V45.7652H180.751V45.6882Z" fill="#3E3E3C"/>
    <path d="M188.995 41.0654C189.535 40.5261 190.151 40.2179 190.922 40.2179C191.615 40.2179 192.308 40.5261 192.848 41.0654C193.387 41.6818 193.695 42.4522 193.695 43.2998C193.695 44.1473 193.387 44.9177 192.848 45.5341C192.308 46.0734 191.692 46.3816 190.922 46.3816C190.228 46.3816 189.535 46.0734 188.995 45.5341C188.456 44.9177 188.148 44.1473 188.148 43.2998C188.148 42.4522 188.379 41.6818 188.995 41.0654ZM189.381 44.9177C189.766 45.4571 190.305 45.6882 190.845 45.6882C191.384 45.6882 191.769 45.4571 192.154 45.0718C192.617 44.6095 192.848 43.9932 192.848 43.2998C192.848 42.6834 192.694 42.1441 192.308 41.6818C191.923 41.1425 191.384 40.9113 190.845 40.9113C190.305 40.9113 189.92 41.1425 189.535 41.5277C189.073 41.99 188.841 42.6063 188.841 43.2998C188.841 43.9161 188.995 44.4555 189.381 44.9177Z" fill="#3E3E3C"/>
    </svg>
    