<svg width="100" height="100" viewBox="0 0 100 100" fill="none" xmlns="http://www.w3.org/2000/svg">
<path d="M84.3217 15.8578C74.9957 6.62062 63.4081 1.99988 49.5676 1.99988C41.0258 1.99988 33.0906 4.12503 25.7512 8.37099C18.4161 12.617 12.6255 18.4877 8.3752 25.9853C4.12707 33.4829 1.99976 41.6217 1.99976 50.4061C1.99976 63.5772 6.66382 74.8009 15.9898 84.0792C25.3157 93.3596 36.7582 97.9999 50.3128 97.9999C63.8674 97.9999 75.0477 93.3358 84.3498 84.0185C93.6585 74.6991 98.3117 63.3498 98.3117 49.9728C98.3117 36.5958 93.6455 25.0971 84.3217 15.8599V15.8578ZM83.7953 69.8379C80.4137 75.806 75.7041 80.5113 69.6688 83.9514C63.6313 87.3936 57.0673 89.1115 49.9748 89.1115C39.3513 89.1115 30.2766 85.3725 22.7443 77.89C15.2121 70.4076 11.4514 61.2333 11.4514 50.3714C11.4514 43.0363 13.1497 36.3814 16.553 30.4154C19.9563 24.445 24.6853 19.6986 30.7423 16.174C36.7994 12.6495 43.2095 10.8904 49.9748 10.8904C56.7402 10.8904 63.3735 12.6516 69.515 16.174C75.6543 19.6986 80.4158 24.393 83.7974 30.2594C87.1769 36.1236 88.8688 42.6853 88.8688 49.9403C88.8688 57.1953 87.1769 63.8675 83.7974 69.8379H83.7953Z" fill="#ACADA8"/>
</svg>
