<svg width="100" height="100" viewBox="0 0 100 100" fill="none" xmlns="http://www.w3.org/2000/svg">
<path d="M24.0002 78.6746L31.7665 74.0149C37.2342 84.0795 43.5512 89.114 50.7173 89.114C53.7827 89.114 56.6617 88.3992 59.3544 86.9694C62.0471 85.5396 64.0965 83.6246 65.5046 81.2222C66.9127 78.8197 67.6167 76.2722 67.6167 73.5794C67.6167 70.5141 66.5812 67.5116 64.5102 64.5698C61.6529 60.5101 56.4321 55.6229 48.8521 49.906C41.2311 44.148 36.4869 39.9865 34.6238 37.4172C31.3939 33.1106 29.7778 28.4487 29.7778 23.438C29.7778 19.4607 30.731 15.8365 32.6352 12.5653C34.5393 9.29421 37.2234 6.71413 40.6808 4.82944C44.1404 2.94476 47.9011 2.00024 51.9608 2.00024C56.2696 2.00024 60.2968 3.06823 64.0466 5.19988C67.7944 7.3337 71.7609 11.2591 75.9462 16.9738L68.4897 22.6278C65.0518 18.0721 62.1208 15.0696 59.6989 13.6182C57.2748 12.1689 54.634 11.4432 51.7767 11.4432C48.0896 11.4432 45.0763 12.561 42.7367 14.7988C40.397 17.0366 39.2251 19.79 39.2251 23.0633C39.2251 25.0519 39.6388 26.9778 40.4685 28.8408C41.2961 30.7038 42.8081 32.7358 45.0048 34.9303C46.2049 36.0915 50.1411 39.1351 56.8112 44.0635C64.7225 49.9038 70.1491 55.103 73.091 59.6587C76.0307 64.2166 77.5016 68.7919 77.5016 73.391C77.5016 80.0177 74.9843 85.7779 69.952 90.6651C64.9197 95.5523 58.7998 97.9959 51.5925 97.9959C46.0403 97.9959 41.0079 96.5142 36.4934 93.5528C31.9788 90.5915 27.8151 85.6306 24.0046 78.6724L24.0002 78.6746Z" fill="#ACADA8"/>
</svg>
